<mxfile host="Electron" modified="2024-10-04T00:33:08.512Z" agent="Mozilla/5.0 (X11; Linux x86_64) AppleWebKit/537.36 (KHTML, like Gecko) draw.io/21.6.5 Chrome/114.0.5735.243 Electron/25.3.1 Safari/537.36" etag="B8Z1C8BUO4sMd5gQEKP3" version="21.6.5" type="device">
  <diagram name="Page-1" id="XQpnbHps4Ra_ysarjgnG">
    <mxGraphModel dx="1364" dy="2843" grid="1" gridSize="10" guides="1" tooltips="1" connect="1" arrows="1" fold="1" page="1" pageScale="1" pageWidth="1060" pageHeight="2000" math="0" shadow="0">
      <root>
        <mxCell id="0" />
        <mxCell id="1" parent="0" />
        <mxCell id="uSqVCuNqCW10vcJo9bsy-10" value="" style="rounded=1;whiteSpace=wrap;html=1;fillColor=#AD7D00;strokeColor=#FFE6CC;" parent="1" vertex="1">
          <mxGeometry x="100" y="-1695" width="20" height="20" as="geometry" />
        </mxCell>
        <mxCell id="uSqVCuNqCW10vcJo9bsy-11" value="" style="rounded=1;whiteSpace=wrap;html=1;fillColor=#688F51;strokeColor=#D5E8D4;" parent="1" vertex="1">
          <mxGeometry x="270" y="-1695" width="20" height="20" as="geometry" />
        </mxCell>
        <mxCell id="uSqVCuNqCW10vcJo9bsy-12" value="User Assets" style="text;html=1;strokeColor=none;fillColor=none;align=left;verticalAlign=middle;whiteSpace=wrap;rounded=0;fontColor=#FFFFFF;" parent="1" vertex="1">
          <mxGeometry x="130" y="-1700" width="80" height="30" as="geometry" />
        </mxCell>
        <mxCell id="uSqVCuNqCW10vcJo9bsy-13" value="Admin Fees" style="text;html=1;strokeColor=none;fillColor=none;align=left;verticalAlign=middle;whiteSpace=wrap;rounded=0;fontColor=#FFFFFF;" parent="1" vertex="1">
          <mxGeometry x="300" y="-1700" width="100" height="30" as="geometry" />
        </mxCell>
        <mxCell id="9k4V9jYYkEPxiwSoa5Fr-1" value="" style="rounded=1;whiteSpace=wrap;html=1;arcSize=13;opacity=50;fillColor=#4D4D4D;strokeColor=#FFFFFF;" parent="1" vertex="1">
          <mxGeometry x="40" y="-1990" width="380" height="280" as="geometry" />
        </mxCell>
        <mxCell id="9k4V9jYYkEPxiwSoa5Fr-2" value="" style="rounded=0;whiteSpace=wrap;html=1;fillColor=#688F51;strokeColor=#D5E8D4;" parent="1" vertex="1">
          <mxGeometry x="350" y="-1920" width="50" height="40" as="geometry" />
        </mxCell>
        <mxCell id="9k4V9jYYkEPxiwSoa5Fr-3" value="ETH crvUSD Minting Market" style="text;html=1;strokeColor=none;fillColor=none;align=center;verticalAlign=middle;whiteSpace=wrap;rounded=0;fontSize=13;fontStyle=1;fontColor=#FFFFFF;" parent="1" vertex="1">
          <mxGeometry x="40" y="-1990" width="380" height="50" as="geometry" />
        </mxCell>
        <mxCell id="9k4V9jYYkEPxiwSoa5Fr-4" value="" style="rounded=0;whiteSpace=wrap;html=1;fillColor=#AD7D00;strokeColor=#FFE6CC;" parent="1" vertex="1">
          <mxGeometry x="110" y="-1920" width="240" height="40" as="geometry" />
        </mxCell>
        <mxCell id="9k4V9jYYkEPxiwSoa5Fr-5" value="crvUSD" style="text;html=1;strokeColor=none;fillColor=none;align=right;verticalAlign=middle;whiteSpace=wrap;rounded=0;fontColor=#FFFFFF;" parent="1" vertex="1">
          <mxGeometry x="50" y="-1920" width="50" height="40" as="geometry" />
        </mxCell>
        <mxCell id="9k4V9jYYkEPxiwSoa5Fr-6" value="Debt" style="text;html=1;strokeColor=none;fillColor=none;align=center;verticalAlign=middle;whiteSpace=wrap;rounded=0;fontColor=#FFFFFF;" parent="1" vertex="1">
          <mxGeometry x="50" y="-1950" width="370" height="30" as="geometry" />
        </mxCell>
        <mxCell id="9k4V9jYYkEPxiwSoa5Fr-7" value="AMM (LLAMMA)" style="text;html=1;strokeColor=none;fillColor=none;align=center;verticalAlign=middle;whiteSpace=wrap;rounded=0;fontColor=#FFFFFF;" parent="1" vertex="1">
          <mxGeometry x="50" y="-1870" width="370" height="30" as="geometry" />
        </mxCell>
        <mxCell id="9k4V9jYYkEPxiwSoa5Fr-8" value="" style="rounded=0;whiteSpace=wrap;html=1;fillColor=#ffe6cc;strokeColor=#d79b00;" parent="1" vertex="1">
          <mxGeometry x="190" y="-1780" height="40" as="geometry" />
        </mxCell>
        <mxCell id="9k4V9jYYkEPxiwSoa5Fr-9" value="" style="rounded=0;whiteSpace=wrap;html=1;fillColor=#AD7D00;strokeColor=#FFE6CC;" parent="1" vertex="1">
          <mxGeometry x="110" y="-1780" width="80" height="40" as="geometry" />
        </mxCell>
        <mxCell id="9k4V9jYYkEPxiwSoa5Fr-10" value="crvUSD" style="text;html=1;strokeColor=none;fillColor=none;align=right;verticalAlign=middle;whiteSpace=wrap;rounded=0;fontColor=#FFFFFF;" parent="1" vertex="1">
          <mxGeometry x="50" y="-1780" width="50" height="40" as="geometry" />
        </mxCell>
        <mxCell id="9k4V9jYYkEPxiwSoa5Fr-11" value="" style="rounded=0;whiteSpace=wrap;html=1;fillColor=#ffe6cc;strokeColor=#d79b00;" parent="1" vertex="1">
          <mxGeometry x="280" y="-1840" height="40" as="geometry" />
        </mxCell>
        <mxCell id="9k4V9jYYkEPxiwSoa5Fr-12" value="" style="rounded=0;whiteSpace=wrap;html=1;fillColor=#AD7D00;strokeColor=#FFE6CC;" parent="1" vertex="1">
          <mxGeometry x="110" y="-1840" width="170" height="40" as="geometry" />
        </mxCell>
        <mxCell id="9k4V9jYYkEPxiwSoa5Fr-13" value="ETH" style="text;html=1;strokeColor=none;fillColor=none;align=right;verticalAlign=middle;whiteSpace=wrap;rounded=0;fontColor=#FFFFFF;" parent="1" vertex="1">
          <mxGeometry x="50" y="-1840" width="50" height="40" as="geometry" />
        </mxCell>
      </root>
    </mxGraphModel>
  </diagram>
</mxfile>
